<?xml version="1.0" encoding="utf-8"?>
<!-- Generator: Adobe Illustrator 16.0.0, SVG Export Plug-In . SVG Version: 6.00 Build 0)  -->
<!DOCTYPE svg PUBLIC "-//W3C//DTD SVG 1.1//EN" "http://www.w3.org/Graphics/SVG/1.1/DTD/svg11.dtd">
<svg version="1.1" id="Layer_1" xmlns="http://www.w3.org/2000/svg" xmlns:xlink="http://www.w3.org/1999/xlink" x="0px" y="0px"
	 width="182px" height="182px" viewBox="0 0 182 182" enable-background="new 0 0 182 182" xml:space="preserve">
<path fill="#ffffff" d="M108.685,72.798L152.682,28.8c1.688-1.688,1.688-4.422,0-6.108l-11.574-11.575
	c-1.687-1.686-4.421-1.686-6.108,0L91,55.115L47.001,11.117c-1.686-1.686-4.422-1.686-6.109,0L29.316,22.692
	c-1.688,1.686-1.688,4.42,0,6.108l43.999,43.999l-43.998,44c-1.689,1.688-1.689,4.422,0,6.107l11.574,11.576
	c1.688,1.688,4.423,1.688,6.109,0L91,90.484l43.998,43.998c1.688,1.688,4.422,1.688,6.107,0l11.575-11.576
	c1.688-1.686,1.688-4.42,0-6.107L108.685,72.798z"/>
</svg>
