<?xml version="1.0" encoding="utf-8"?>
<!-- Generator: Adobe Illustrator 16.0.0, SVG Export Plug-In . SVG Version: 6.00 Build 0)  -->
<!DOCTYPE svg PUBLIC "-//W3C//DTD SVG 1.1//EN" "http://www.w3.org/Graphics/SVG/1.1/DTD/svg11.dtd">
<svg version="1.1"
	 id="Layer_1" xmlns:dc="http://purl.org/dc/elements/1.1/" xmlns:cc="http://creativecommons.org/ns#" xmlns:rdf="http://www.w3.org/1999/02/22-rdf-syntax-ns#" xmlns:svg="http://www.w3.org/2000/svg" xmlns:sodipodi="http://sodipodi.sourceforge.net/DTD/sodipodi-0.dtd" xmlns:inkscape="http://www.inkscape.org/namespaces/inkscape"
	 xmlns="http://www.w3.org/2000/svg" xmlns:xlink="http://www.w3.org/1999/xlink" x="0px" y="0px" width="1000px" height="300px"
	 viewBox="0 0 1000 300" enable-background="new 0 0 1000 300" xml:space="preserve">
<g>
	<g transform="translate(-163.69854,-405.29)">
		<path fill="#52AA56" d="M944.349,438.504c-18.873,1.081-34.867,3.008-48.336,5.612c-52.131,10.256-67.062,30.59-68.172,49.311
			c-1.025,17.379,9.688,33.371,13.557,38.475c1.92-11.419,6.242-22.916,13.111-33.725c8.719-13.656,20.195-24.192,32.697-30.977
			c-39.982,40.737-30.42,74.205-30.42,74.205c3.1,1.009,6.258,1.622,9.418,1.692c0.457,0,0.879,0.073,1.305,0
			c0.84-0.035,1.66-0.102,2.584-0.111c0.074-0.01,0.074,0,0.145-0.026c68.408-3.815,28.766-87.382,74.117-104.455H944.349z
			 M766.417,471.619c34.918,13.154,5.726,68.906,50.645,71.366c0.074,0,0.074-0.01,0.143,0.062c0.584,0,1.152,0.014,1.723,0.087
			h0.889c2.16-0.073,4.326-0.509,6.416-1.163c0,0,6.588-22.907-20.752-50.674c5.688,3.113,11.059,7.307,15.752,12.583
			c-0.586-3.469-0.797-7.164-0.586-10.86c0.162-3.399,0.809-7.011,1.973-10.697c-6.156-2.67-13.738-4.999-23.139-6.805
			c-11.732-2.305-19.902-3.08-33.059-3.887L766.417,471.619z"/>
	</g>
	<g>
		<path fill="#52AA56" d="M103.168,144.918c10.674,0,19.562,4.059,26.664,12.171c7.099,8.114,10.65,18.043,10.65,29.786v28.186
			c0,2.457-0.08,4.299-0.24,5.525c-0.16,1.229-0.668,2.642-1.521,4.243c-1.389,2.777-5.5,4.164-12.331,4.164
			c-6.513,0-10.569-1.387-12.171-4.164c-0.856-1.602-1.361-3.042-1.521-4.323s-0.24-3.203-0.24-5.766v-28.025
			c0-4.376-1.229-7.792-3.683-10.249c-2.458-2.454-5.58-3.684-9.369-3.684c-3.791,0-7.126,1.149-10.009,3.443
			c-2.883,2.297-4.539,4.885-4.964,7.768v31.067c0,2.457-0.08,4.299-0.24,5.525c-0.16,1.229-0.668,2.642-1.521,4.243
			c-1.389,2.777-5.5,4.164-12.331,4.164c-6.726,0-10.837-1.441-12.331-4.324c-0.749-1.602-1.201-2.987-1.361-4.163
			c-0.16-1.174-0.24-3.043-0.24-5.605v-95.766c0-2.455,0.08-4.297,0.24-5.525c0.16-1.226,0.613-2.587,1.361-4.083
			c1.494-2.883,5.657-4.324,12.491-4.324c6.726,0,10.782,1.441,12.171,4.324c0.853,1.602,1.361,3.018,1.521,4.244
			c0.16,1.229,0.24,3.07,0.24,5.525v35.392C89.769,148.176,96.014,144.918,103.168,144.918z"/>
		<path fill="#52AA56" d="M164.342,155.167c8.968-8.327,19.217-12.491,30.748-12.491c11.531,0,21.725,4.139,30.588,12.411
			c8.86,8.274,13.292,18.816,13.292,31.628c0,8.863-2.297,16.735-6.886,23.621c-4.592,6.887-10.169,11.959-16.735,15.214
			c-6.566,3.258-13.372,4.885-20.418,4.885c-7.046,0-13.88-1.734-20.498-5.205c-6.621-3.468-12.199-8.593-16.735-15.373
			c-4.539-6.779-6.806-14.438-6.806-22.981C150.89,174.064,155.375,163.494,164.342,155.167z M184.36,198.325
			c3.416,2.618,6.886,3.924,10.409,3.924c3.523,0,7.046-1.334,10.57-4.004c3.523-2.667,5.285-6.618,5.285-11.851
			c0-5.229-1.657-9.128-4.964-11.69c-3.311-2.562-6.886-3.843-10.73-3.843c-3.843,0-7.421,1.336-10.729,4.003
			c-3.311,2.67-4.964,6.594-4.964,11.771C179.236,191.814,180.942,195.711,184.36,198.325z"/>
		<path fill="#52AA56" d="M276.922,155.808c5.017-7.579,11.05-11.37,18.096-11.37c10.89,0,19.002,4.644,24.342,13.933
			c1.173-1.602,2.587-3.283,4.244-5.045c1.654-1.762,4.296-3.684,7.927-5.766c3.628-2.081,7.367-3.122,11.21-3.122
			c8.54,0,15.694,3.282,21.459,9.849c5.765,6.565,8.647,17.431,8.647,32.589V214.9c0,2.457-0.08,4.299-0.24,5.525
			c-0.16,1.229-0.668,2.642-1.521,4.243c-1.389,2.883-5.5,4.324-12.331,4.324c-6.726,0-10.837-1.494-12.331-4.484
			c-0.749-1.602-1.201-3.015-1.361-4.243c-0.16-1.227-0.24-3.068-0.24-5.525v-28.025c0-9.288-3.311-13.933-9.929-13.933
			c-3.738,0-6.273,1.229-7.606,3.684c-1.336,2.457-2.002,5.926-2.002,10.409V214.9c0,2.562-0.08,4.432-0.24,5.605
			c-0.16,1.176-0.668,2.562-1.521,4.163c-1.496,2.883-5.66,4.324-12.491,4.324c-6.726,0-10.837-1.494-12.331-4.484
			c-0.748-1.602-1.201-3.015-1.361-4.243c-0.16-1.227-0.24-3.068-0.24-5.525v-28.025c0-9.288-3.31-13.933-9.929-13.933
			c-6.406,0-9.608,4.645-9.608,13.933v28.346c0,2.457-0.08,4.299-0.24,5.525c-0.16,1.229-0.668,2.642-1.521,4.243
			c-1.602,2.777-5.765,4.164-12.491,4.164s-10.837-1.441-12.331-4.324c-0.749-1.602-1.201-2.987-1.361-4.163
			c-0.16-1.174-0.24-3.043-0.24-5.605v-56.37c0-2.455,0.08-4.297,0.24-5.525c0.16-1.227,0.666-2.587,1.521-4.084
			c1.601-2.882,5.39-4.323,11.37-4.323c5.978,0,9.874,0.961,11.69,2.882C276.014,149.401,276.922,152.179,276.922,155.808z"/>
		<path fill="#52AA56" d="M467.013,176.706c0,6.566-1.629,11.426-4.884,14.573c-3.258,3.15-6.861,4.725-10.81,4.725h-37.954
			c0,2.99,1.761,5.5,5.285,7.526c3.523,2.029,7.046,3.043,10.569,3.043c6.19,0,11.05-0.641,14.573-1.922l1.762-0.641
			c2.562-1.174,4.696-1.762,6.405-1.762c3.416,0,6.351,2.402,8.808,7.207c1.386,2.882,2.082,5.339,2.082,7.366
			c0,9.504-11.37,14.253-34.111,14.253c-7.902,0-14.921-1.361-21.059-4.084c-6.141-2.723-10.917-6.325-14.333-10.81
			c-6.726-8.647-10.089-18.309-10.089-28.986c0-13.452,4.349-24.206,13.052-32.269c8.701-8.06,19.562-12.091,32.589-12.091
			c14.838,0,25.728,5.232,32.669,15.694C465.196,164.082,467.013,170.141,467.013,176.706z M433.222,181.431
			c4.056,0,6.085-1.707,6.085-5.125c0-2.454-0.936-4.429-2.802-5.925c-1.869-1.494-4.539-2.242-8.007-2.242
			c-3.471,0-6.914,1.416-10.329,4.243c-3.418,2.83-5.125,5.846-5.125,9.049H433.222z"/>
		<path fill="#52AA56" d="M530.91,218.424c-4.059,5.34-10.518,8.007-19.377,8.007c-8.863,0-17.164-4.083-24.903-12.251
			c-7.742-8.167-11.611-17.695-11.611-28.586c0-10.89,3.896-20.443,11.691-28.665c7.792-8.22,16.334-12.331,25.623-12.331
			c3.628,0,6.938,0.668,9.929,2.002c2.988,1.336,5.045,2.562,6.166,3.683s2.002,2.162,2.643,3.123
			c0.32-2.987,1.414-5.257,3.283-6.806c1.866-1.547,4.884-2.322,9.048-2.322c4.163,0,7.206,0.32,9.128,0.961
			s3.283,1.736,4.084,3.282c0.801,1.549,1.281,2.91,1.441,4.084c0.16,1.176,0.24,2.99,0.24,5.445v66.299
			c0,12.276-4.271,22.181-12.812,29.707c-8.542,7.526-18.15,11.29-28.825,11.29c-8.114,0-15.854-1.977-23.221-5.925
			c-7.366-3.951-11.05-7.527-11.05-10.73c0-4.163,1.602-7.847,4.804-11.05c2.027-2.242,3.604-3.791,4.725-4.644
			c1.121-0.856,2.427-1.281,3.923-1.281c1.494,0,3.043,0.641,4.644,1.922c5.125,3.948,10.675,5.925,16.655,5.925
			c4.056,0,7.366-1.602,9.929-4.804c2.562-3.203,3.844-7.047,3.844-11.531V218.424z M502.404,185.674
			c0,3.471,1.361,6.594,4.084,9.369c2.723,2.777,6.03,4.163,9.929,4.163c3.896,0,7.126-1.413,9.688-4.243
			c2.562-2.828,3.844-5.926,3.844-9.289c0-3.362-1.229-6.511-3.684-9.448c-2.457-2.935-5.766-4.403-9.929-4.403
			c-4.164,0-7.526,1.44-10.089,4.323S502.404,182.206,502.404,185.674z"/>
		<path fill="#52AA56" d="M628.436,145.559c2.027,0.641,3.709,1.736,5.045,3.282c1.334,1.549,2.002,4.031,2.002,7.447
			c0,3.418-1.016,7.153-3.043,11.21c-2.029,4.059-4.965,6.085-8.809,6.085c-1.922,0-3.762-0.425-5.523-1.281
			c-1.762-0.853-4.084-1.28-6.967-1.28s-5.58,1.016-8.088,3.042c-2.51,2.029-3.763,4.484-3.763,7.367v33.63
			c0,2.457-0.08,4.299-0.24,5.525c-0.16,1.229-0.669,2.642-1.521,4.243c-1.602,2.777-5.765,4.164-12.491,4.164
			c-5.125,0-8.809-0.906-11.05-2.723c-1.71-1.493-2.67-3.788-2.883-6.886c0-1.066,0-2.615,0-4.645v-56.21
			c0-2.455,0.08-4.297,0.24-5.525c0.16-1.227,0.612-2.587,1.361-4.084c1.493-2.882,5.657-4.323,12.491-4.323
			c6.406,0,10.409,1.229,12.011,3.683c1.173,1.709,1.762,3.471,1.762,5.285c0.532-0.746,1.306-1.654,2.321-2.723
			c1.014-1.065,3.176-2.507,6.486-4.323c3.309-1.814,6.219-2.723,8.729-2.723c2.506,0,4.615,0.135,6.324,0.4
			C624.537,144.465,626.406,144.918,628.436,145.559z"/>
		<path fill="#52AA56" d="M650.533,155.167c8.969-8.327,19.217-12.491,30.748-12.491c11.529,0,21.725,4.139,30.588,12.411
			c8.859,8.274,13.291,18.816,13.291,31.628c0,8.863-2.297,16.735-6.887,23.621c-4.592,6.887-10.168,11.959-16.734,15.214
			c-6.566,3.258-13.371,4.885-20.418,4.885s-13.881-1.734-20.498-5.205c-6.621-3.468-12.199-8.593-16.736-15.373
			c-4.539-6.779-6.805-14.438-6.805-22.981C637.082,174.064,641.564,163.494,650.533,155.167z M670.551,198.325
			c3.416,2.618,6.887,3.924,10.41,3.924s7.047-1.334,10.568-4.004c3.523-2.667,5.285-6.618,5.285-11.851
			c0-5.229-1.656-9.128-4.965-11.69c-3.311-2.562-6.885-3.843-10.729-3.843s-7.422,1.336-10.73,4.003
			c-3.311,2.67-4.965,6.594-4.965,11.771C665.426,191.814,667.133,195.711,670.551,198.325z"/>
		<path fill="#52AA56" d="M840.305,145.238c6.83,2.99,10.248,6.673,10.248,11.05c0,1.816-0.855,4.724-2.562,8.728
			c-1.709,4.004-3.15,7.502-4.322,10.489l-17.617,42.919c-1.602,4.699-4.271,8.007-8.006,9.929
			c-1.602,0.746-3.631,1.121-6.086,1.121c-2.457,0-4.832-0.934-7.127-2.803c-2.297-1.866-3.818-3.764-4.564-5.685l-1.281-2.723
			c-0.855-2.135-4.002-10.462-9.447-24.982c-1.068,2.562-2.643,6.753-4.725,12.571c-2.082,5.82-3.418,9.448-4.004,10.89
			c-0.588,1.441-0.961,2.402-1.121,2.883s-0.615,1.361-1.361,2.643c-0.748,1.28-1.602,2.401-2.562,3.362
			c-2.562,2.562-5.5,3.844-8.807,3.844c-3.311,0-6.086-0.934-8.328-2.803c-2.242-1.866-3.738-3.764-4.484-5.685l-24.182-58.934
			c-1.068-3.202-1.602-5.284-1.602-6.245c0-4.269,3.043-7.632,9.129-10.089c3.416-1.387,6.189-2.082,8.326-2.082
			c2.135,0,3.869,0.455,5.205,1.361c1.334,0.908,2.268,1.816,2.803,2.722c0.533,0.909,0.961,1.842,1.281,2.803
			c1.814,4.271,5.605,14.308,11.371,30.107l9.447-25.943c0.641-2.135,1.814-4.004,3.523-5.605c3.096-3.095,6.246-4.644,9.449-4.644
			s5.949,0.855,8.246,2.562c2.295,1.71,3.869,3.419,4.725,5.125l1.281,2.723c5.338,14.948,8.488,23.488,9.449,25.623l9.768-26.584
			c2.562-6.831,6.406-10.249,11.531-10.249C835.926,143.637,838.062,144.172,840.305,145.238z"/>
		<path fill="#52AA56" d="M906.283,144.598c10.676,0,19.562,4.083,26.664,12.251c7.1,8.167,10.65,18.123,10.65,29.866V214.9
			c0,2.457-0.08,4.299-0.24,5.525c-0.16,1.229-0.615,2.59-1.361,4.083c-1.496,2.883-5.66,4.324-12.492,4.324
			c-7.582,0-11.957-1.975-13.131-5.926c-0.641-1.813-0.961-4.536-0.961-8.167v-28.186c0-4.376-1.256-7.792-3.764-10.249
			c-2.51-2.454-5.873-3.684-10.09-3.684c-4.219,0-7.633,1.281-10.248,3.844c-2.617,2.562-3.924,5.926-3.924,10.089V214.9
			c0,2.457-0.08,4.299-0.24,5.525c-0.16,1.229-0.668,2.59-1.521,4.083c-1.389,2.883-5.5,4.324-12.332,4.324
			c-6.725,0-10.836-1.441-12.33-4.324c-0.748-1.602-1.201-3.015-1.361-4.243c-0.16-1.227-0.24-3.068-0.24-5.525v-56.69
			c0-2.348,0.08-4.137,0.24-5.365c0.16-1.226,0.666-2.587,1.521-4.084c1.494-2.667,5.605-4.003,12.33-4.003
			c6.512,0,10.516,1.229,12.012,3.683c1.066,1.817,1.602,4.004,1.602,6.566c0.426-0.746,1.387-1.814,2.883-3.203
			c1.494-1.386,2.936-2.507,4.324-3.363C897.9,145.826,901.904,144.598,906.283,144.598z"/>
	</g>
</g>
</svg>
